<svg xmlns="http://www.w3.org/2000/svg" width="186" height="186" viewBox="0 0 186 186" fill="none"><g clip-path="url(#clip0_74_9)"><path d="M156.981 89.9415H183.818C184.355 89.9415 184.82 90.3809 184.843 90.9152C186.032 117.028 173.302 152.898 138.316 172.932C103.839 192.673 60.2663 188.064 30.6777 161.373C-0.539647 133.213 -7.9644 89.3917 8.53191 53.9122C25.8478 16.6754 62.4577 -0.727779 94.0784 0.287023C94.6308 0.305007 95.0676 0.76231 95.0676 1.31467V28.1851C95.0676 28.7554 94.6 29.2127 94.0296 29.2127C75.2339 29.1357 59.0408 35.6124 46.1233 49.4985C32.9951 63.6106 27.546 80.5154 29.4882 99.6528C32.7382 131.659 60.3254 156.199 92.8992 155.991C110.77 155.878 126.067 149.234 138.406 136.319C150.478 123.684 156.092 108.444 155.953 90.982C155.948 90.4091 156.408 89.939 156.981 89.939V89.9415Z" fill="white"></path><path d="M155.974 73.6651V49.9727C155.974 49.5231 155.44 49.2919 155.111 49.5976C155.008 49.6926 154.91 49.7877 154.815 49.8828C146.877 57.8367 139.29 66.1735 131.357 74.1327C131.272 74.2174 131.105 74.2842 130.987 74.2842C124.79 74.2354 118.773 74.256 112.602 74.256H111.631C111.359 74.256 111.133 74.0402 111.117 73.7678C111.097 73.4056 111.081 73.105 111.081 72.8044C111.079 67.0085 111.05 61.5337 111.115 55.7378C111.122 55.0544 111.467 53.8803 111.945 53.3973C119.688 45.5641 127.475 37.7771 135.259 29.9875C136.025 29.2219 134.879 29.2193 134.879 29.2193H111.844C111.418 29.2193 111.071 28.8725 111.071 28.446L111.12 1.01812C111.12 0.591643 111.467 0.244812 111.893 0.244812H184.54C184.823 0.244812 185.054 0.476033 185.054 0.758636V73.4287C185.054 73.8552 184.717 74.274 184.291 74.274L156.593 74.2585C156.295 74.2585 155.971 73.9605 155.971 73.6651H155.974Z" fill="#D2191F"></path></g><defs><clipPath id="clip0_74_9"><rect width="185.054" height="184.843" fill="white" transform="translate(0 0.255188)"></rect></clipPath></defs></svg>